<?xml version="1.0" encoding="utf-8"?>
<!-- Generator: Adobe Illustrator 24.3.0, SVG Export Plug-In . SVG Version: 6.00 Build 0)  -->
<svg version="1.1" id="Calque_1" xmlns="http://www.w3.org/2000/svg" xmlns:xlink="http://www.w3.org/1999/xlink" x="0px" y="0px"
	 viewBox="0 0 581.7 127" style="enable-background:new 0 0 581.7 127;" xml:space="preserve">
<style type="text/css">
	.st0{fill:#ED2330;}
	.st1{fill:#FFFFFF;}
	.st2{fill:#67696B;}
	.st3{fill:#B3B5B6;}
</style>
<g>
	<g>
		<g>
			<path class="st0" d="M149.7,61.7c1.3,1.3,1.3,3.3,0,4.6l-17.5,17.5c-1.3,1.3-3.3,1.3-4.6,0L110,66.3c-1.3-1.3-1.3-3.3,0-4.6
				l17.5-17.5c1.3-1.3,3.3-1.3,4.6,0L149.7,61.7z"/>
			<path class="st1" d="M115.8,26.7c2.2,0,5.2-1.2,6.7-2.8l4.4-4.4c1.5-1.5,4-1.5,5.5,0l4.4,4.4c1.5,1.5,4.5,2.8,6.7,2.8h9.6
				c2.2,0,3.9,0,4-0.1s-1.2-1.3-2.7-2.8l-22-22c-1.5-1.5-4-1.5-5.5,0L105,23.7c-1.5,1.5-2.7,2.8-2.7,2.8s1.8,0.1,4,0.1h9.5V26.7z"/>
			<path class="st2" d="M143.4,100.3c-2.2,0-5.2,1.2-6.7,2.8l-4.4,4.4c-1.5,1.5-4,1.5-5.5,0l-4.4-4.4c-1.5-1.5-4.5-2.8-6.7-2.8h-9.6
				c-2.2,0-3.9,0-4,0.1c0,0,1.2,1.3,2.7,2.8l21.9,21.9c1.5,1.5,4,1.5,5.5,0l21.9-21.9c1.5-1.5,2.7-2.8,2.7-2.8s-1.8-0.1-4-0.1H143.4
				z"/>
			<path class="st3" d="M94,77.5c0-2.2-1.2-5.2-2.8-6.7l-4.4-4.4c-1.5-1.5-1.5-4,0-5.5l4.4-4.4C92.7,55,94,52,94,49.8v-9.6
				c0-2.2,0-3.9-0.1-4c0,0-1.3,1.2-2.8,2.7l-22,22c-1.5,1.5-1.5,4,0,5.5L91,88.3c1.5,1.5,2.8,2.7,2.8,2.7s0.1-1.8,0.1-4L94,77.5
				L94,77.5z"/>
			<path class="st3" d="M166.1,49.8c0,2.2,1.2,5.2,2.8,6.7l4.4,4.4c1.5,1.5,1.5,4,0,5.5l-4.4,4.4c-1.5,1.5-2.8,4.5-2.8,6.7v9.6
				c0,2.2,0,3.9,0.1,4c0,0,1.3-1.2,2.8-2.7l21.9-21.9c1.5-1.5,1.5-4,0-5.5L169,38.9c-1.5-1.5-2.8-2.7-2.8-2.7s-0.1,1.8-0.1,4
				L166.1,49.8L166.1,49.8z"/>
		</g>
	</g>
	<g>
		<g>
			<g>
				<g>
					<g>
						<path class="st1" d="M254.1,102.7V82.4c0-2.2-1.3-3.9-4.2-3.9c-1.5,0-2.7,0.4-3.7,1.4v22.9h-8.4V82.2c0-2.3-1.6-3.8-4.5-3.8
							c-1.5,0-2.4,0.2-3.4,0.5v23.7h-8.4V75.3c3.2-1.5,6.7-2.2,11.7-2.2c4.8,0,7.5,1.3,9.2,2.9c1.8-1.6,4.8-2.9,9.6-2.9
							c6.9,0,10.4,4.1,10.4,9.2v20.3L254.1,102.7L254.1,102.7z"/>
						<path class="st1" d="M275.6,91.1c0.6,4.3,2.7,6.3,7,6.3c3.4,0,6-0.8,7.5-1.6l1.9,5.2c-2.3,1.1-5.5,2.1-10.4,2.1
							c-8.9,0-14-5.9-14-15.1c0-9.1,4.7-15,13.1-15s12.6,5.7,12.3,15.5L275.6,91.1z M280.4,78.1c-3.4,0-5.6,3-5.3,8.9l10.1-1.5
							C285.2,80.4,283.5,78.1,280.4,78.1z M282.3,70.7h-4.6l3.7-7.7c2.5-1.5,7-1.6,7.9,0.2L282.3,70.7z"/>
						<path class="st1" d="M314.3,102.7V82.4c0-2-0.9-4-4.3-4c-1.7,0-2.6,0.3-3.6,0.6v23.7H298V75.3c2.9-1.3,7-2.2,12.2-2.2
							c9.2,0,12.5,3.9,12.5,9.2v20.3L314.3,102.7L314.3,102.7z"/>
						<path class="st1" d="M340.2,103.2c-8.4,0-12.7-3.1-12.7-9.1c0-7.5,7.5-9.7,16.2-10.5v-1.3c0-3-2-3.9-5.1-3.9
							c-2.8,0-5.6,0.9-7.5,1.8l-1.8-4.8c2-0.9,5.8-2.2,10.9-2.2c6.6,0,11.4,2.7,11.4,10.6v17.3C349.1,102.4,345.2,103.2,340.2,103.2
							z M343.7,87.5c-5.1,0.5-8.3,1.7-8.3,6.3c0,3.4,1.9,4.8,5.3,4.8c1.2,0,2.3-0.2,3.1-0.6V87.5H343.7z"/>
						<path class="st1" d="M371.7,79.2c-2-0.9-4.2-0.8-5.6-0.2v23.7h-8.4V75.3c3.2-1.6,7.7-2.4,15.6-2L371.7,79.2z"/>
						<path class="st1" d="M387,103.2c-8.4,0-12.7-3.1-12.7-9.1c0-7.5,7.5-9.7,16.2-10.5v-1.3c0-3-2-3.9-5.1-3.9
							c-2.8,0-5.6,0.9-7.5,1.8l-1.8-4.8c2-0.9,5.8-2.2,10.9-2.2c6.6,0,11.4,2.7,11.4,10.6v17.3C396,102.4,392,103.2,387,103.2z
							 M390.5,87.5c-5.1,0.5-8.3,1.7-8.3,6.3c0,3.4,1.9,4.8,5.3,4.8c1.2,0,2.3-0.2,3.1-0.6V87.5H390.5z"/>
						<path class="st1" d="M420.4,103.1c-1.6,0-3.3-0.3-4.3-0.7v11.2h-4.4v-37c1.8-1.1,4.7-1.9,8.6-1.9c7.8,0,12.2,5.4,12.2,13.8
							C432.4,97.6,427.7,103.1,420.4,103.1z M420.1,77.3c-1.7,0-2.9,0.3-3.9,0.8v21.6c0.9,0.4,2,0.6,3.4,0.6c5.6,0,8.4-4.3,8.4-11.7
							C427.9,81.7,425.9,77.3,420.1,77.3z"/>
						<path class="st1" d="M449.2,78.1c-2.2-0.7-4.8-0.5-6.3,0.5v24.1h-4.5V76.6c2.7-1.4,5.3-2.1,11.9-1.9L449.2,78.1z"/>
						<path class="st1" d="M457.2,90.6c0.5,6.2,3.4,9.3,8.4,9.3c3.1,0,5.4-0.8,6.8-1.6l1.2,3c-1.7,1-4.6,1.9-8.3,1.9
							c-7.2,0-12.3-4.5-12.3-14.4c0-9.4,4.6-14.2,11.1-14.2c6.6,0,10.6,4.3,10.5,13.5L457.2,90.6z M463.9,77.5c-4,0-7,3.2-6.8,10.7
							l13.2-2C470.2,80,467.8,77.5,463.9,77.5z M464.5,72.1h-2.6l3.6-7c1.8-1.1,4.3-1.2,4.8,0.1L464.5,72.1z"/>
						<path class="st1" d="M486.2,78v24.7h-4.5V78h-3.2v-2.8h3.2v-3.9c0-5.4,3.3-8.9,9.3-8.7v2.9c-2.7,0.2-4.8,1.4-4.8,5.3v4.4h4.8
							V78H486.2z"/>
						<path class="st1" d="M503.9,103.2c-7.2,0-10.5-3.1-10.5-8.1c0-7.3,6.8-9.5,15.4-10.3v-1.7c0-4.2-2.6-5.5-6.1-5.5
							c-2.7,0-5.1,1-6.6,1.7l-1.1-2.7c1.6-0.9,4.6-2,8.4-2c5.1,0,9.6,2.2,9.6,8.9v17.7C511,102.4,507.8,103.2,503.9,103.2z
							 M508.8,87.1c-7,0.9-11.1,2.4-11.1,7.9c0,4,2.5,5.6,6.5,5.6c1.7,0,3.4-0.3,4.5-0.9V87.1H508.8z"/>
					</g>
					<g>
						<path class="st1" d="M510,32.3c-2.5-2.4-5.5-3.7-8.9-3.7c-2.8,0-5.2,0.8-7.1,2.3c-0.1,0-0.5,0.5-4.2,4.5
							c-1.5,1.6-3.1,2.5-4.7,2.6c-1.6-0.1-2.5-1.1-2.5-2.8v-9.6l-7.5,1.9v7.8c0,1.5-0.8,2.5-2.3,2.6h-60.4c-1.5-0.2-2.3-1.1-2.3-2.5
							V12.6l-7.5,1.9v22.8c0,3,1,5.3,3,6.9c1.5,1.3,3.4,2,5.8,2.2l0.5,0.1h61.4h0.2c2-0.1,3.7-0.8,5-2l0.4-0.4l0.4,0.4
							c1.2,1.2,3.1,1.9,5.4,2h0.2l0,0h0.2l0,0h0.2c1.2-0.1,2.3-0.5,3.2-1.1l0.7-0.5l0.2,0.8c0.8,2.4,2.2,4.4,4.5,5.9
							c2.2,1.5,4.7,2.2,7.3,2.2c3.4,0,6.4-1.2,8.9-3.7c2.5-2.4,3.7-5.4,3.7-8.8C513.7,37.7,512.5,34.7,510,32.3z M504.2,44.2
							c-0.8,0.8-1.9,1.3-3,1.3c-1.2,0-2.3-0.4-3.1-1.2c-0.9-0.8-1.4-1.9-1.4-3.1c0-1.2,0.5-2.3,1.3-3.1c0.9-0.8,2-1.3,3.1-1.3
							c1.2,0,2.3,0.4,3.1,1.3c0.8,0.9,1.2,1.9,1.2,3.1C505.4,42.4,505,43.4,504.2,44.2z"/>
						<path class="st1" d="M479,20.3c0.9,0,1.7-0.3,2.3-1c0.7-0.7,1-1.4,1-2.3s-0.3-1.7-1-2.3c-0.7-0.7-1.4-1-2.3-1s-1.7,0.3-2.3,1
							c-0.7,0.7-1,1.4-1,2.3s0.3,1.7,1,2.4C477.3,20,478,20.3,479,20.3z"/>
						<path class="st1" d="M362.3,18.7c0.8,0,1.5-0.3,2.1-0.9s0.9-1.3,0.9-2.2c0-0.8-0.3-1.5-0.9-2.2c-0.6-0.6-1.3-0.9-2.1-0.9
							c-0.9,0-1.6,0.3-2.2,0.9c-0.6,0.6-0.9,1.3-0.9,2.2c0,0.9,0.3,1.6,0.9,2.2C360.7,18.4,361.4,18.7,362.3,18.7z"/>
						<path class="st1" d="M372.6,18.7c0.8,0,1.5-0.3,2.1-0.9s0.9-1.3,0.9-2.2c0-0.8-0.3-1.5-0.9-2.2c-0.6-0.6-1.3-0.9-2.1-0.9
							c-0.9,0-1.6,0.3-2.2,0.9c-0.6,0.6-0.9,1.3-0.9,2.2c0,0.9,0.3,1.6,0.9,2.2C371,18.4,371.7,18.7,372.6,18.7z"/>
						<path class="st1" d="M376.3,26c-0.4-0.4-0.9-0.8-1.4-1.2l-0.1-0.1c0-0.1-0.1-0.1-0.1-0.1c-0.4-0.2-0.8-0.5-1.3-0.7l-0.1-0.1
							c-0.2-0.1-0.4-0.2-0.6-0.3c-1-0.5-2.1-0.8-3.3-1h-0.3c-0.3,0-0.5-0.1-0.7-0.1c-0.3,0-0.7,0-1,0h-0.1c-0.4,0-0.8,0-1.2,0.1
							h-0.2c-0.4,0-0.7,0.1-1,0.1h-0.2c-0.3,0.1-0.7,0.1-1,0.2h-0.1c-0.3,0.1-0.6,0.2-0.9,0.3c-1.6,0.6-3,1.6-4.3,2.9
							c-2.5,2.4-3.7,5.4-3.7,8.8c0,3.5,1.3,6.4,3.7,8.9c0.4,0.4,0.8,0.8,1.4,1.2l0.1,0.1c0.1,0.1,0.1,0.1,0.1,0.1
							c0.4,0.2,0.8,0.5,1.3,0.7l0.1,0.1c0.2,0.1,0.4,0.2,0.6,0.3c1,0.5,2.1,0.8,3.2,1h0.3h0.2c0.2,0,0.4,0,0.5,0.1c0.3,0,0.7,0,1,0
							h0.1l0,0c0.5,0,0.8,0,1.2-0.1h0.3c0.3,0,0.6-0.1,0.9-0.1h0.2c0.3-0.1,0.7-0.1,1-0.2h0.1c0.3-0.1,0.6-0.2,0.9-0.3
							c1.6-0.6,3-1.6,4.3-2.9c2.5-2.4,3.7-5.4,3.7-8.8C380,31.4,378.8,28.4,376.3,26z M370.5,38c-0.9,0.8-1.9,1.3-3.1,1.3
							s-2.3-0.4-3.1-1.3c-0.8-0.8-1.2-1.9-1.2-3.1c0-1.2,0.4-2.2,1.3-3c0.9-0.9,1.9-1.3,3.1-1.3s2.3,0.4,3.1,1.2
							c0.9,0.8,1.4,1.9,1.4,3.1C371.9,36.1,371.4,37.1,370.5,38z"/>
						<path class="st1" d="M387.2,38.4c0,1.1,0,2.2,0,3.5c-0.2,4.3-0.9,6.9-2.3,8.1c-0.8,0.7-2.1,1.2-3.9,1.3
							c-0.5,0-0.8,0.1-1.1,0.1c-0.4,0-0.7,0.1-1.2,0.1l-0.9,8.2c5.6-0.4,9.9-1.8,12.8-4.3c1.6-1.4,2.8-3.5,3.5-6.1
							c0.5-2,0.7-4.5,0.8-8c0-1.3,0-2.8,0-4.4c0-1.2,0-2.3,0-3.4l-7.6,1.9C387.2,36.5,387.2,37.4,387.2,38.4z"/>
					</g>
					<g>
						<path class="st1" d="M331.8,27.1v12c0,2.6-2.1,4.8-4.8,4.8h-13.5v1.7l-0.1-1.7c-2.3,0-4.6-1.7-6.2-3.3l-1.8-2.2l-2.8,2
							c0.1,0.1,0.8,1.1,1.9,2.4l0.4,0.5c0.4,0.4,3.7,4.1-1.8,10.2l-9.5,8.7l2.3,2.5l9.6-8.8l0.1-0.1c3.3-3.6,4.2-6.8,4.1-9.3
							c1.2,0.5,2.4,0.8,3.7,0.7l0,0H327c4.5,0,8.2-3.7,8.2-8.2V27h-3.4V27.1z"/>
						<path class="st1" d="M333.2,50.6c-1.1,0-1.9,0.9-1.9,1.9c0,1.1,0.9,1.9,1.9,1.9c1.1,0,1.9-0.9,1.9-1.9
							C335.1,51.4,334.2,50.6,333.2,50.6z"/>
						<path class="st1" d="M280.8,50.6c-1.1,0-1.9,0.9-1.9,1.9c0,1.1,0.9,1.9,1.9,1.9c1.1,0,1.9-0.9,1.9-1.9
							C282.7,51.4,281.9,50.6,280.8,50.6z"/>
						<path class="st1" d="M288.1,50.6c-1.1,0-1.9,0.9-1.9,1.9c0,1.1,0.9,1.9,1.9,1.9c1.1,0,1.9-0.9,1.9-1.9
							C290,51.4,289.1,50.6,288.1,50.6z"/>
						<path class="st1" d="M244.7,20.4c1.1,0,1.9-0.9,1.9-1.9c0-1.1-0.9-1.9-1.9-1.9c-1.1,0-1.9,0.9-1.9,1.9
							C242.7,19.5,243.6,20.4,244.7,20.4z"/>
						<path class="st1" d="M287.2,39.1c0,2.6-2.1,4.8-4.8,4.8h-32.5c1.7-1.4,3-3.1,3.9-5.2l0,0c0.5-1.2,0.7-2.4,0.7-3.8
							c0-5.6-4.6-10.2-10.2-10.2c-5.6,0-10.2,4.6-10.2,10.2c0,3.9,2.2,7.3,5.4,9h-10c-2.6,0-4.8-2.1-4.8-4.8V13.3h-3.4v25.9
							c0,4.5,3.7,8.2,8.2,8.2h13c0.1,0,1.6-0.2,1.7-1.7l0,0c-0.1,1.5,1.5,1.7,1.7,1.7h36.6c4.5,0,8.2-3.7,8.2-8.2v-12h-3.4v11.9
							H287.2z M244.3,41.7c-3.7,0-6.8-3-6.8-6.8c0-3.7,3-6.8,6.8-6.8c3.7,0,6.8,3,6.8,6.8c0,1.2-0.3,2.3-0.8,3.2l0,0
							C249.1,40.2,246.8,41.7,244.3,41.7z"/>
					</g>
				</g>
			</g>
		</g>
	</g>
</g>
</svg>
